# AST/ASF file generated using VICON BodyLanguage
# -----------------------------------------------
:version 1.10
:name VICON
:units
  mass 1.0
  length 0.45
  angle deg
:documentation
   .ast/.asf automatically generated from VICON data using
   VICON BodyBuilder and BodyLanguage model FoxedUp or BRILLIANT.MOD
:root
   order TX TY TZ RX RY RZ
   axis XYZ
   position 0 0 0  
   orientation 0 0 0 
:bonedata
  begin
     id 1 
     name lhipjoint
     direction 0.602128 -0.715006 0.355257 
     length 2.21237 
     axis 0 0 0  XYZ
  end
  begin
     id 2 
     name lfemur
     direction 0.34202 -0.939693 0  
     length 6.71649  
     axis 0 0 20  XYZ
    dof rx ry rz
    limits (-160.0 20.0)
           (-70.0 70.0)
           (-60.0 70.0)
  end
  begin
     id 3 
     name ltibia
     direction 0.34202 -0.939693 0   
     length 6.97123   
     axis 0 0 20   XYZ
    dof rx
    limits (-10.0 170.0)
  end
  begin
     id 4 
     name lfoot
     direction 0.0655697 -0.180151 0.981451   
     length 1.80924   
     axis -90 7.62852e-016 20   XYZ
    dof rx rz
    limits (-45.0 90.0)
           (-70.0 20.0)
  end
  begin
     id 5 
     name ltoes
     direction 1.53545e-011 -4.21827e-011 1   
     length 0.916331   
     axis -90 7.62852e-016 20   XYZ
    dof rx
    limits (-90.0 20.0)
  end
  begin
     id 6 
     name rhipjoint
     direction -0.625414 -0.698792 0.347201   
     length 2.2637  
     axis 0 0 0  XYZ 
  end
  begin
     id 7 
     name rfemur
     direction -0.34202 -0.939693 0   
     length 7.07595   
     axis 0 0 -20   XYZ
    dof rx ry rz
    limits (-160.0 20.0)
           (-70.0 70.0)
           (-70.0 60.0)
  end
  begin
     id 8 
     name rtibia
     direction -0.34202 -0.939693 0   
     length 7.22924   
     axis 0 0 -20   XYZ
    dof rx
    limits (-10.0 170.0)
 end
 begin
     id 9 
     name rfoot
     direction -0.0766747 -0.210662 0.974547   
     length 1.98482  
     axis -90 -7.62852e-016 -20   XYZ
    dof rx rz
    limits (-45.0 90.0)
           (-20.0 70.0)
  end
  begin
     id 10 
     name rtoes
     direction -1.53532e-011 -4.21867e-011 1   
     length 0.999842   
     axis -90 -7.62852e-016 -20   XYZ
    dof rx
    limits (-90.0 20.0)
  end
  begin
     id 11 
     name lowerback
     direction -0.0224668 0.997354 -0.0691422   
     length 2.09945   
     axis 0 0 0   XYZ
    dof rx ry rz
    limits (-20.0 45.0)
           (-30.0 30.0)
           (-30.0 30.0)
  end
  begin
     id 12 
     name upperback
     direction 0.0134698 0.998451 -0.0539888   
     length 2.09758   
     axis 0 0 0   XYZ
    dof rx ry rz
    limits (-20.0 45.0)
           (-30.0 30.0)
           (-30.0 30.0)
  end
  begin
     id 13 
     name thorax
     direction 0.0241905 0.99948 -0.0213333   
     length 2.10428   
     axis 0 0 0   XYZ
    dof rx ry rz
    limits (-20.0 45.0)
           (-30.0 30.0)
           (-30.0 30.0)
  end
  begin
     id 14 
     name lowerneck
     direction -0.00866847 0.995978 0.0891737   
     length 1.3959   
     axis 0 0 0   XYZ
    dof rx ry rz
    limits (-20.0 45.0)
           (-30.0 30.0)
           (-30.0 30.0)
  end
  begin
     id 15 
     name upperneck
     direction 0.0680679 0.992203 0.104404   
     length 1.39452   
     axis 0 0 0   XYZ
    dof rx ry rz
    limits (-20.0 45.0)
           (-30.0 30.0)
           (-30.0 30.0)
  end
  begin
     id 16
     name head
     direction 0.0242216 0.999358 0.0264054  
     length 1.40433  
     axis 0 0 0   XYZ
    dof rx ry rz
    limits (-20.0 45.0)
           (-30.0 30.0)
           (-30.0 30.0)
  end
  begin
     id 17 
     name lclavicle
     direction 0.929368 0.362991 -0.0671771  
     length 3.04887  
     axis 0 0 0   XYZ
    dof ry rz
    limits (-20.0 10.0)
           (0.0 20.0)
  end
  begin
     id 18 
     name lhumerus
     direction 1 -4.48967e-011 -7.13741e-028   
     length 4.77195   
     axis -180 -30 -90   XYZ
    dof rx ry rz
    limits (-60.0 90.0)
           (-90.0 90.0)
           (-90.0 90.0)
  end
  begin
     id 19
     name lradius
     direction 1 -4.48977e-011 3.60404e-027   
     length 2.98444   
     axis -180 -30 -90   XYZ
    dof rx
    limits (-10.0 170.0)
  end
  begin
     id 20
     name lwrist
     direction 1 -4.48997e-011 7.54877e-027   
     length 1.49222   
     axis -7.18178e-015 90 90   XYZ
    dof ry
    limits (-180.0 0.0)
 end
  begin
     id 21 
     name lhand
     direction 1 -4.489e-011 1.51105e-026   
     length 0.992285   
     axis -9.63605e-015 90 90   XYZ
    dof rx rz
    limits (-90.0 90.0)
           (-45.0 45.0)
  end
  begin
     id 22 
     name lfingers
     direction 1 -4.48998e-011 3.01948e-026   
     length 0.800006   
     axis -1.92718e-014 90 90   XYZ
    dof rx
    limits (0.0 90.0)
  end
  begin
     id 23
     name lthumb
     direction 0.707107 -6.34881e-011 0.707107   
     length 1.14865   
     axis -90 45 -3.53137e-014   XYZ
    dof rx rz
    limits (-45.0 45.0)
           (-45.0 45.0)
  end
  begin
     id 24 
     name rclavicle
     direction -0.945672 0.324529 0.0196374   
     length 3.4236  
     axis 0 0 0   XYZ 
    dof ry rz
    limits (-10.0 20.0)
           (-20.0 0.0)
  end
  begin
     id 25 
     name rhumerus
     direction -1 -4.4896e-011 1.02757e-029  
     length 4.62052   
     axis -180 30 90   XYZ
    dof rx ry rz
    limits (-90.0 60.0)
           (-90.0 90.0)
           (-90.0 90.0)
  end
  begin
     id 26 
     name rradius
     direction -1 -4.48982e-011 3.85962e-027   
     length 2.95332   
     axis -180 30 90   XYZ
    dof rx
    limits (-10.0 170.0)
  end
  begin
     id 27 
     name rwrist
     direction -1 -4.48961e-011 7.55118e-027   
     length 1.47666   
     axis -7.18178e-015 -90 -90   XYZ
    dof ry
    limits (-180.0 0.0)
  end
  begin
     id 28
     name rhand
     direction -1 -4.48984e-011 1.50994e-026   
     length 0.990956   
     axis -9.63605e-015 -90 -90   XYZ
    dof rx rz
    limits (-90.0 90.0)
           (-45.0 45.0)
  end
  begin
     id 29
     name rfingers
     direction -1 -4.4892e-011 3.02158e-026   
     length 0.798934   
     axis -1.92718e-014 -90 -90   XYZ
    dof rx
    limits (0.0 90.0)
  end
  begin
     id 30
     name rthumb
     direction -0.707107 -6.34916e-011 0.707107   
     length 1.14711   
     axis -90 -45 3.53137e-014   XYZ
    dof rx rz
    limits (-45.0 45.0)
           (-45.0 45.0)
  end
:hierarchy
  begin
    root lhipjoint rhipjoint lowerback
    lhipjoint lfemur
    lfemur ltibia
    ltibia lfoot
    lfoot ltoes
    rhipjoint rfemur
    rfemur rtibia
    rtibia rfoot
    rfoot rtoes
    lowerback upperback
    upperback thorax
    thorax lowerneck lclavicle rclavicle
    lowerneck upperneck
    upperneck head
    lclavicle lhumerus
    lhumerus lradius
    lradius lwrist
    lwrist lhand lthumb
    lhand lfingers
    rclavicle rhumerus
    rhumerus rradius
    rradius rwrist
    rwrist rhand rthumb
    rhand rfingers
  end

#!OML:ASF H:\ManfredObstacles\Project 1\Capture day 1\Session 1\Male.ASF
:FULLY-SPECIFIED
:DEGREES
388
root -8.76038 16.4391 -10.1337 -173.959 -63.0156 -180.412
lowerback -9.20097 -3.14814 -5.60208
upperback 3.36909 -3.60087 0.995343
thorax 9.2041 -2.10825 3.58994
lowerneck -2.17388 -0.915217 -6.35229
upperneck 5.90509 -1.56456 8.69033
head 2.45239 -0.741129 4.00072
rclavicle -8.07563e-015 -1.46107e-014
rhumerus -42.9407 -28.6577 -64.8256
rradius 22.666
rwrist 38.5976
rhand 1.20926 -4.56627
rfingers 7.12502
rthumb 26.7481 -32.6954
lclavicle -8.07563e-015 -1.46107e-014
lhumerus -26.3939 15.522 79.9246
lradius 18.0204
lwrist -33.2477
lhand -7.89316 8.58888
lfingers 7.12502
lthumb 18.0116 37.7749
rfemur -35.1032 -5.00091 14.8364
rtibia 36.0763
rfoot -15.0713 -0.527607
rtoes 15.7241
lfemur -10.0452 2.87867 -22.8402
ltibia 21.3803
lfoot -8.38424 -17.9628
ltoes -1.96674
389
root -8.90907 16.444 -10.2462 -173.894 -63.7302 -180.327
lowerback -9.3927 -3.19726 -5.36297
upperback 3.32428 -3.69011 1.04786
thorax 9.26307 -2.13862 3.48807
lowerneck -2.13461 -1.02818 -6.34573
upperneck 5.83459 -1.72716 8.85349
head 2.43879 -0.820202 4.05241
rclavicle -1.01952e-013 3.35946e-014
rhumerus -43.5076 -29.119 -64.5478
rradius 22.754
rwrist 38.6545
rhand 1.36249 -4.38925
rfingers 7.12502
rthumb 26.8947 -32.4959
lclavicle -1.01952e-013 3.35946e-014
lhumerus -25.5694 14.135 80.8003
lradius 18.5562
lwrist -32.431
lhand -8.07622 8.43047
lfingers 7.12502
lthumb 17.8355 37.6326
rfemur -34.8809 -4.67914 14.381
rtibia 32.3144
rfoot -15.0431 0.510243
rtoes 14.2506
lfemur -8.91353 2.64696 -22.5591
ltibia 20.2026
lfoot -7.92408 -18.5827
ltoes -0.0366526
390
root -9.06051 16.45 -10.3611 -173.241 -64.3456 -180.887
lowerback -9.62865 -3.27745 -5.45854
upperback 3.25427 -3.77014 1.03786
thorax 9.34007 -2.18124 3.50686
lowerneck -2.1076 -1.11175 -6.39585
upperneck 5.79019 -1.83289 8.83371
head 2.42874 -0.874349 4.05155
rclavicle 6.7798e-014 -3.08116e-015
rhumerus -43.9792 -29.2967 -64.4714
rradius 22.8072
rwrist 38.5405
rhand 1.37472 -4.32894
rfingers 7.12502
rthumb 26.9064 -32.4338
lclavicle 6.7798e-014 -3.08116e-015
lhumerus -24.8717 12.0286 81.8774
lradius 19.2079
lwrist -30.5854
lhand -8.3036 8.6299
lfingers 7.12502
lthumb 17.6167 37.8518
rfemur -34.5687 -4.12881 13.4996
rtibia 28.5817
rfoot -14.8288 1.60623
rtoes 11.8887
lfemur -7.89037 1.99652 -22.5878
ltibia 19.2831
lfoot -7.6378 -18.7486
ltoes 2.77826
391
root -9.2148 16.4532 -10.4816 -172.745 -65.0339 -181.39
lowerback -9.79363 -3.39498 -5.65248
upperback 3.20774 -3.89873 1.11425
thorax 9.42178 -2.25742 3.66657
lowerneck -2.11771 -1.21562 -6.50271
upperneck 5.55713 -1.94961 8.86253
head 2.36559 -0.932809 4.07684
rclavicle -2.71403e-014 6.95746e-016
rhumerus -44.3267 -29.4383 -64.3297
rradius 22.7516
rwrist 38.3814
rhand 1.52664 -4.32378
rfingers 7.12502
rthumb 27.0518 -32.4061
lclavicle -2.71403e-014 6.95746e-016
lhumerus -24.267 11.1423 82.7296
lradius 19.7383
lwrist -29.7841
lhand -8.53409 8.64644
lfingers 7.12502
lthumb 17.3949 37.8881
rfemur -34.2046 -3.24219 12.4804
rtibia 25.5333
rfoot -14.4943 2.54035
rtoes 20.1305
lfemur -6.56953 1.363 -22.5612
ltibia 18.0354
lfoot -7.19631 -18.8535
ltoes 4.61214
392
root -9.37027 16.4563 -10.6184 -176.368 -65.9623 -177.825
lowerback -9.60021 -3.49006 -4.35319
upperback 3.32696 -4.26873 1.73979
thorax 9.42465 -2.38902 3.54449
lowerneck -2.3305 -1.21804 -6.58874
upperneck 5.47582 -1.93848 8.98499
head 2.38158 -0.921125 4.13829
rclavicle 2.58606e-014 -7.59109e-015
rhumerus -44.334 -29.4105 -64.2495
rradius 22.6117
rwrist 38.0894
rhand 1.86831 -4.33025
rfingers 7.12502
rthumb 27.3786 -32.3614
lclavicle 2.58606e-014 -7.59109e-015
lhumerus -23.7129 10.9004 83.5045
lradius 20.2311
lwrist -29.4004
lhand -8.70084 8.58385
lfingers 7.12502
lthumb 17.2344 37.8396
rfemur -33.2134 -1.59844 13.1739
rtibia 23.0552
rfoot -15.5627 1.69337
rtoes 15.9123
lfemur -4.78159 1.01447 -20.6
ltibia 16.7873
lfoot -6.67172 -19.2346
ltoes 5.36197
393
root -9.53199 16.4451 -10.7484 -172.456 -66.4392 -181.591
lowerback -10.2543 -3.75308 -5.85026
upperback 3.14328 -4.35748 1.48307
thorax 9.725 -2.50811 4.06264
lowerneck -2.59414 -1.2133 -7.02638
upperneck 5.59719 -1.93369 9.53489
head 2.23201 -0.887045 3.97026
rclavicle 2.96313e-015 -1.48095e-014
rhumerus -44.3374 -29.453 -64.2074
rradius 22.4604
rwrist 38.0291
rhand 2.09655 -4.22953
rfingers 7.12502
rthumb 27.5969 -32.226
lclavicle 2.96313e-015 -1.48095e-014
lhumerus -23.3115 9.99044 84.3215
lradius 20.8395
lwrist -28.2869
lhand -8.63194 8.54603
lfingers 7.12502
lthumb 17.3007 37.796
rfemur -33.517 -0.833468 10.9174
rtibia 21.3485
rfoot -16.1765 1.03792
rtoes 14.917
lfemur -3.94568 0.425293 -22.0597
ltibia 15.5992
lfoot -6.35273 -19.1177
ltoes 5.75679
394
root -9.68898 16.4329 -10.8868 -171.67 -66.9405 -182.206
lowerback -10.6171 -3.87265 -6.10431
upperback 3.00405 -4.46402 1.53338
thorax 9.82512 -2.57342 4.22274
lowerneck -2.61545 -1.23202 -7.1591
upperneck 5.39913 -1.94315 9.6599
head 2.1802 -0.891266 4.02985
rclavicle 2.01891e-014 4.57205e-015
rhumerus -44.5111 -29.6875 -64.0687
rradius 22.3162
rwrist 38.2852
rhand 2.19909 -4.02207
rfingers 7.12502
rthumb 27.695 -32.0028
lclavicle 2.01891e-014 4.57205e-015
lhumerus -23.0456 9.27649 85.0058
lradius 21.4121
lwrist -27.2467
lhand -8.50801 8.44324
lfingers 7.12502
lthumb 17.42 37.6827
rfemur -33.4939 -0.12743 10.3082
rtibia 20.1416
rfoot -16.6887 0.586801
rtoes 19.7666
lfemur -3.06464 -0.0430798 -22.0368
ltibia 14.7882
lfoot -6.0416 -19.1036
ltoes 7.17425
395
root -9.84329 16.4154 -11.0303 -171.214 -67.4456 -182.551
lowerback -10.81 -4.02647 -6.30244
upperback 2.85472 -4.64053 1.64528
thorax 9.82535 -2.66961 4.41216
lowerneck -2.70741 -1.24272 -7.33648
upperneck 5.20588 -1.931 9.73706
head 2.13977 -0.884168 4.08258
rclavicle 4.8081e-015 5.1684e-015
rhumerus -44.5371 -29.6591 -64.0685
rradius 22.1487
rwrist 38.4912
rhand 2.25518 -3.91977
rfingers 7.12502
rthumb 27.7486 -31.8919
lclavicle 4.8081e-015 5.1684e-015
lhumerus -22.86 9.44689 85.5077
lradius 21.8287
lwrist -26.9435
lhand -8.75313 8.75198
lfingers 7.12502
lthumb 17.1841 38.0121
rfemur -33.4366 -0.0536941 10.2138
rtibia 19.6749
rfoot -17.1664 1.30764
rtoes 31.1135
lfemur -2.10622 -0.425158 -21.8535
ltibia 14.0593
lfoot -5.64891 -19.1469
ltoes 9.16848
396
root -9.99601 16.396 -11.1825 -171.699 -67.9025 -181.895
lowerback -10.9517 -4.07892 -6.0559
upperback 2.66731 -4.74915 1.76224
thorax 9.7031 -2.70323 4.37523
lowerneck -2.83208 -1.25292 -7.26613
upperneck 5.06897 -1.9264 9.69176
head 2.11881 -0.878474 4.05617
rclavicle -1.02772e-013 1.92821e-014
rhumerus -44.686 -29.6812 -64.1606
rradius 22.0798
rwrist 38.574
rhand 2.39681 -4.01359
rfingers 7.12502
rthumb 27.884 -31.9638
lclavicle -1.02772e-013 1.92821e-014
lhumerus -22.8709 9.19441 85.9078
lradius 22.227
lwrist -26.591
lhand -9.15246 9.50018
lfingers 7.12502
lthumb 16.7997 38.7934
rfemur -33.0317 -0.335306 10.888
rtibia 19.2016
rfoot -16.2787 1.47531
rtoes 28.4239
lfemur -1.37812 -1.01321 -21.2698
ltibia 13.9536
lfoot -6.59365 -18.878
ltoes 5.66303
397
root -10.1495 16.3745 -11.3386 -172.203 -68.3702 -181.2
lowerback -11.1194 -4.17253 -5.85488
upperback 2.45103 -4.9062 1.8854
thorax 9.57539 -2.7628 4.35927
lowerneck -3.24096 -1.26138 -7.56346
upperneck 5.33421 -1.93885 10.0233
head 2.27126 -0.870247 4.20626
rclavicle -7.02455e-014 -9.14409e-015
rhumerus -44.807 -29.7547 -64.2125
rradius 22.0425
rwrist 38.8192
rhand 2.54376 -4.09882
rfingers 7.12502
rthumb 28.0245 -32.0262
lclavicle -7.02455e-014 -9.14409e-015
lhumerus -23.1031 8.802 86.2779
lradius 22.7018
lwrist -26.0857
lhand -9.14335 10.0437
lfingers 7.12502
lthumb 16.8084 39.3361
rfemur -32.4323 -0.832045 11.7548
rtibia 18.9307
rfoot -15.1352 1.90946
rtoes 24.1592
lfemur -0.673299 -1.72085 -20.6506
ltibia 13.9146
lfoot -7.68712 -18.5056
ltoes 1.10071
398
root -10.3043 16.3505 -11.5015 -173.017 -68.8217 -180.301
lowerback -11.2441 -4.22408 -5.54174
upperback 2.31948 -5.02403 1.98579
thorax 9.49747 -2.8005 4.26354
lowerneck -3.23766 -1.48772 -7.3456
upperneck 5.05422 -2.16487 9.11171
head 2.19802 -0.997018 3.8819
rclavicle -4.9311e-014 3.83654e-014
rhumerus -44.7468 -29.7218 -64.4519
rradius 21.9969
rwrist 38.9179
rhand 2.45992 -4.03996
rfingers 7.12502
rthumb 27.9444 -31.9804
lclavicle -4.9311e-014 3.83654e-014
lhumerus -23.2703 9.36158 86.4328
lradius 23.0269
lwrist -26.65
lhand -8.88184 10.0315
lfingers 7.12502
lthumb 17.0602 39.3024
rfemur -31.6668 -0.803237 12.5333
rtibia 18.84
rfoot -12.9594 2.41907
rtoes 26.1153
lfemur 0.232422 -2.40726 -19.894
ltibia 13.7517
lfoot -7.88917 -18.3936
ltoes 2.00438
399
root -10.4606 16.3276 -11.6631 -174.032 -69.2827 -179.35
lowerback -11.2022 -4.28771 -5.2065
upperback 2.24693 -5.17326 2.11518
thorax 9.39183 -2.8555 4.18795
lowerneck -3.31678 -1.32736 -7.92574
upperneck 4.47037 -1.96081 10.4331
head 2.03878 -0.880187 4.38965
rclavicle 5.10877e-014 1.07344e-014
rhumerus -44.5269 -29.3923 -64.8872
rradius 22.058
rwrist 38.6552
rhand 2.39783 -3.94855
rfingers 7.12502
rthumb 27.885 -31.8986
lclavicle 5.10877e-014 1.07344e-014
lhumerus -23.438 7.62079 87.2327
lradius 23.5377
lwrist -24.9677
lhand -9.6258 11.2798
lfingers 7.12502
lthumb 16.344 40.6111
rfemur -31.0183 -0.537913 13.1433
rtibia 19.0118
rfoot -10.0745 2.70313
rtoes 27.9448
lfemur 1.42166 -3.27094 -19.2143
ltibia 13.2988
lfoot -7.99791 -18.0743
ltoes 3.22658
400
root -10.6194 16.314 -11.8243 -175.22 -69.8761 -178.23
lowerback -11.1394 -4.45486 -4.8587
upperback 2.16783 -5.46902 2.29992
thorax 9.28871 -2.98348 4.13567
lowerneck -2.95147 -1.26175 -8.04114
upperneck 3.5275 -1.82812 10.606
head 1.69159 -0.829109 4.46583
rclavicle -1.43398e-013 2.60408e-014
rhumerus -44.2906 -29.05 -65.2879
rradius 22.287
rwrist 38.4772
rhand 2.42085 -3.96189
rfingers 7.12502
rthumb 27.907 -31.9084
lclavicle -1.43398e-013 2.60408e-014
lhumerus -23.3939 7.69667 87.7742
lradius 23.41
lwrist -24.9508
lhand -10.9865 12.9475
lfingers 7.12502
lthumb 15.0335 42.3817
rfemur -30.6581 -0.766935 13.8401
rtibia 19.5677
rfoot -6.55914 2.99707
rtoes 29.7398
lfemur 2.8249 -4.25452 -18.5354
ltibia 12.3473
lfoot -7.92098 -17.4919
ltoes 3.36777
401
root -10.7802 16.3178 -11.9826 -176.408 -70.4405 -176.932
lowerback -11.2683 -4.60277 -4.37728
upperback 2.03802 -5.74535 2.44176
thorax 9.21789 -3.09258 3.95595
lowerneck -2.23179 -1.47786 -8.31758
upperneck 2.27718 -2.05673 10.5557
head 1.23083 -0.973517 4.4943
rclavicle -2.5519e-014 -7.95139e-015
rhumerus -43.9354 -28.6829 -65.7793
rradius 22.4403
rwrist 38.1182
rhand 2.26652 -4.05803
rfingers 7.12502
rthumb 27.7595 -32.0284
lclavicle -2.5519e-014 -7.95139e-015
lhumerus -23.3765 8.13484 87.9928
lradius 23.0267
lwrist -25.404
lhand -11.508 13.6504
lfingers 7.12502
lthumb 14.531 43.1215
rfemur -30.4968 -1.73462 14.8621
rtibia 20.266
rfoot -3.08089 3.11774
rtoes 29.0046
lfemur 4.11941 -5.25109 -17.8315
ltibia 11.2544
lfoot -7.88111 -16.5764
ltoes 1.93413
402
root -10.9413 16.3169 -12.1391 -178.457 -70.8368 -174.413
lowerback -11.772 -4.57945 -3.34764
upperback 1.85321 -5.86421 2.58709
thorax 9.22371 -3.09656 3.48284
lowerneck -2.38562 -1.59586 -8.68316
upperneck 2.13332 -2.19103 10.8248
head 1.2342 -1.03681 4.63423
rclavicle 3.47376e-014 -1.23246e-014
rhumerus -43.6362 -28.5884 -66.1472
rradius 22.4643
rwrist 37.8376
rhand 2.17724 -4.05274
rfingers 7.12502
rthumb 27.6741 -32.0368
lclavicle 3.47376e-014 -1.23246e-014
lhumerus -23.5429 7.7428 88.406
lradius 22.6867
lwrist -24.9777
lhand -12.8639 14.7005
lfingers 7.12502
lthumb 13.2244 44.2611
rfemur -30.7212 -2.78645 16.4469
rtibia 21.2014
rfoot -1.27217 3.41057
rtoes 30.9589
lfemur 5.16084 -6.0386 -16.708
ltibia 10.0151
lfoot -7.36758 -15.7041
ltoes 1.65262
